<mxfile host="app.diagrams.net" modified="2021-07-24T18:11:42.773Z" agent="5.0 (Windows NT 10.0; Win64; x64) AppleWebKit/537.36 (KHTML, like Gecko) Chrome/92.0.4515.107 Safari/537.36" etag="-8NN8wXKY6PhzV-1s7f_" version="14.9.1" type="github">
  <diagram id="du1G-gv9TarFtcxqDP6g" name="Page-1">
    <mxGraphModel dx="1021" dy="500" grid="1" gridSize="10" guides="1" tooltips="1" connect="1" arrows="1" fold="1" page="1" pageScale="1" pageWidth="827" pageHeight="1169" math="0" shadow="0">
      <root>
        <mxCell id="0" />
        <mxCell id="1" parent="0" />
        <mxCell id="s11C3Zhsg1OrHCNwJiAl-14" value="Vendedor" style="swimlane;fontStyle=1;align=center;verticalAlign=top;childLayout=stackLayout;horizontal=1;startSize=26;horizontalStack=0;resizeParent=1;resizeParentMax=0;resizeLast=0;collapsible=1;marginBottom=0;" vertex="1" parent="1">
          <mxGeometry x="110" y="57" width="160" height="112" as="geometry" />
        </mxCell>
        <mxCell id="s11C3Zhsg1OrHCNwJiAl-15" value="+ Codigo: int" style="text;strokeColor=none;fillColor=none;align=left;verticalAlign=top;spacingLeft=4;spacingRight=4;overflow=hidden;rotatable=0;points=[[0,0.5],[1,0.5]];portConstraint=eastwest;" vertex="1" parent="s11C3Zhsg1OrHCNwJiAl-14">
          <mxGeometry y="26" width="160" height="26" as="geometry" />
        </mxCell>
        <mxCell id="s11C3Zhsg1OrHCNwJiAl-18" value="+ Nombre: string" style="text;strokeColor=none;fillColor=none;align=left;verticalAlign=top;spacingLeft=4;spacingRight=4;overflow=hidden;rotatable=0;points=[[0,0.5],[1,0.5]];portConstraint=eastwest;" vertex="1" parent="s11C3Zhsg1OrHCNwJiAl-14">
          <mxGeometry y="52" width="160" height="26" as="geometry" />
        </mxCell>
        <mxCell id="s11C3Zhsg1OrHCNwJiAl-19" value="+ Apellido: string" style="text;strokeColor=none;fillColor=none;align=left;verticalAlign=top;spacingLeft=4;spacingRight=4;overflow=hidden;rotatable=0;points=[[0,0.5],[1,0.5]];portConstraint=eastwest;" vertex="1" parent="s11C3Zhsg1OrHCNwJiAl-14">
          <mxGeometry y="78" width="160" height="26" as="geometry" />
        </mxCell>
        <mxCell id="s11C3Zhsg1OrHCNwJiAl-16" value="" style="line;strokeWidth=1;fillColor=none;align=left;verticalAlign=middle;spacingTop=-1;spacingLeft=3;spacingRight=3;rotatable=0;labelPosition=right;points=[];portConstraint=eastwest;" vertex="1" parent="s11C3Zhsg1OrHCNwJiAl-14">
          <mxGeometry y="104" width="160" height="8" as="geometry" />
        </mxCell>
        <mxCell id="s11C3Zhsg1OrHCNwJiAl-20" value="Cotizacion" style="swimlane;fontStyle=1;align=center;verticalAlign=top;childLayout=stackLayout;horizontal=1;startSize=26;horizontalStack=0;resizeParent=1;resizeParentMax=0;resizeLast=0;collapsible=1;marginBottom=0;" vertex="1" parent="1">
          <mxGeometry x="334" y="57" width="196" height="216" as="geometry" />
        </mxCell>
        <mxCell id="s11C3Zhsg1OrHCNwJiAl-21" value="+ NumeroIdentificacion: int" style="text;strokeColor=none;fillColor=none;align=left;verticalAlign=top;spacingLeft=4;spacingRight=4;overflow=hidden;rotatable=0;points=[[0,0.5],[1,0.5]];portConstraint=eastwest;" vertex="1" parent="s11C3Zhsg1OrHCNwJiAl-20">
          <mxGeometry y="26" width="196" height="26" as="geometry" />
        </mxCell>
        <mxCell id="s11C3Zhsg1OrHCNwJiAl-24" value="+ Fecha: date_time" style="text;strokeColor=none;fillColor=none;align=left;verticalAlign=top;spacingLeft=4;spacingRight=4;overflow=hidden;rotatable=0;points=[[0,0.5],[1,0.5]];portConstraint=eastwest;" vertex="1" parent="s11C3Zhsg1OrHCNwJiAl-20">
          <mxGeometry y="52" width="196" height="26" as="geometry" />
        </mxCell>
        <mxCell id="s11C3Zhsg1OrHCNwJiAl-25" value="+ FKVendedor: int" style="text;strokeColor=none;fillColor=none;align=left;verticalAlign=top;spacingLeft=4;spacingRight=4;overflow=hidden;rotatable=0;points=[[0,0.5],[1,0.5]];portConstraint=eastwest;" vertex="1" parent="s11C3Zhsg1OrHCNwJiAl-20">
          <mxGeometry y="78" width="196" height="26" as="geometry" />
        </mxCell>
        <mxCell id="s11C3Zhsg1OrHCNwJiAl-26" value="+ Unidad: int" style="text;strokeColor=none;fillColor=none;align=left;verticalAlign=top;spacingLeft=4;spacingRight=4;overflow=hidden;rotatable=0;points=[[0,0.5],[1,0.5]];portConstraint=eastwest;" vertex="1" parent="s11C3Zhsg1OrHCNwJiAl-20">
          <mxGeometry y="104" width="196" height="26" as="geometry" />
        </mxCell>
        <mxCell id="s11C3Zhsg1OrHCNwJiAl-27" value="+ Importe: double" style="text;strokeColor=none;fillColor=none;align=left;verticalAlign=top;spacingLeft=4;spacingRight=4;overflow=hidden;rotatable=0;points=[[0,0.5],[1,0.5]];portConstraint=eastwest;" vertex="1" parent="s11C3Zhsg1OrHCNwJiAl-20">
          <mxGeometry y="130" width="196" height="26" as="geometry" />
        </mxCell>
        <mxCell id="s11C3Zhsg1OrHCNwJiAl-22" value="" style="line;strokeWidth=1;fillColor=none;align=left;verticalAlign=middle;spacingTop=-1;spacingLeft=3;spacingRight=3;rotatable=0;labelPosition=right;points=[];portConstraint=eastwest;" vertex="1" parent="s11C3Zhsg1OrHCNwJiAl-20">
          <mxGeometry y="156" width="196" height="8" as="geometry" />
        </mxCell>
        <mxCell id="s11C3Zhsg1OrHCNwJiAl-64" value="Imprimir()" style="text;strokeColor=none;fillColor=none;align=left;verticalAlign=top;spacingLeft=4;spacingRight=4;overflow=hidden;rotatable=0;points=[[0,0.5],[1,0.5]];portConstraint=eastwest;" vertex="1" parent="s11C3Zhsg1OrHCNwJiAl-20">
          <mxGeometry y="164" width="196" height="26" as="geometry" />
        </mxCell>
        <mxCell id="s11C3Zhsg1OrHCNwJiAl-65" value="ImprimirHistorial(int Vendedor)" style="text;strokeColor=none;fillColor=none;align=left;verticalAlign=top;spacingLeft=4;spacingRight=4;overflow=hidden;rotatable=0;points=[[0,0.5],[1,0.5]];portConstraint=eastwest;" vertex="1" parent="s11C3Zhsg1OrHCNwJiAl-20">
          <mxGeometry y="190" width="196" height="26" as="geometry" />
        </mxCell>
        <mxCell id="s11C3Zhsg1OrHCNwJiAl-28" style="edgeStyle=orthogonalEdgeStyle;rounded=0;orthogonalLoop=1;jettySize=auto;html=1;exitX=1.017;exitY=0.128;exitDx=0;exitDy=0;entryX=-0.001;entryY=0.063;entryDx=0;entryDy=0;entryPerimeter=0;exitPerimeter=0;endArrow=ERmany;endFill=0;startArrow=diamondThin;startFill=1;" edge="1" parent="1" source="s11C3Zhsg1OrHCNwJiAl-14" target="s11C3Zhsg1OrHCNwJiAl-20">
          <mxGeometry relative="1" as="geometry" />
        </mxCell>
        <mxCell id="s11C3Zhsg1OrHCNwJiAl-63" style="edgeStyle=orthogonalEdgeStyle;rounded=0;orthogonalLoop=1;jettySize=auto;html=1;startArrow=diamondThin;startFill=1;endArrow=ERmany;endFill=0;" edge="1" parent="1" source="s11C3Zhsg1OrHCNwJiAl-29" target="s11C3Zhsg1OrHCNwJiAl-35">
          <mxGeometry relative="1" as="geometry" />
        </mxCell>
        <mxCell id="s11C3Zhsg1OrHCNwJiAl-29" value="Tienda" style="swimlane;fontStyle=1;align=center;verticalAlign=top;childLayout=stackLayout;horizontal=1;startSize=26;horizontalStack=0;resizeParent=1;resizeParentMax=0;resizeLast=0;collapsible=1;marginBottom=0;" vertex="1" parent="1">
          <mxGeometry x="20" y="330" width="160" height="138" as="geometry" />
        </mxCell>
        <mxCell id="s11C3Zhsg1OrHCNwJiAl-43" value="+ Codigo: int" style="text;strokeColor=none;fillColor=none;align=left;verticalAlign=top;spacingLeft=4;spacingRight=4;overflow=hidden;rotatable=0;points=[[0,0.5],[1,0.5]];portConstraint=eastwest;" vertex="1" parent="s11C3Zhsg1OrHCNwJiAl-29">
          <mxGeometry y="26" width="160" height="26" as="geometry" />
        </mxCell>
        <mxCell id="s11C3Zhsg1OrHCNwJiAl-30" value="+ Nombre: string" style="text;strokeColor=none;fillColor=none;align=left;verticalAlign=top;spacingLeft=4;spacingRight=4;overflow=hidden;rotatable=0;points=[[0,0.5],[1,0.5]];portConstraint=eastwest;" vertex="1" parent="s11C3Zhsg1OrHCNwJiAl-29">
          <mxGeometry y="52" width="160" height="26" as="geometry" />
        </mxCell>
        <mxCell id="s11C3Zhsg1OrHCNwJiAl-33" value="+ Direccion: string" style="text;strokeColor=none;fillColor=none;align=left;verticalAlign=top;spacingLeft=4;spacingRight=4;overflow=hidden;rotatable=0;points=[[0,0.5],[1,0.5]];portConstraint=eastwest;" vertex="1" parent="s11C3Zhsg1OrHCNwJiAl-29">
          <mxGeometry y="78" width="160" height="26" as="geometry" />
        </mxCell>
        <mxCell id="s11C3Zhsg1OrHCNwJiAl-34" value="+ LstPrenda: Prenda" style="text;strokeColor=none;fillColor=none;align=left;verticalAlign=top;spacingLeft=4;spacingRight=4;overflow=hidden;rotatable=0;points=[[0,0.5],[1,0.5]];portConstraint=eastwest;" vertex="1" parent="s11C3Zhsg1OrHCNwJiAl-29">
          <mxGeometry y="104" width="160" height="26" as="geometry" />
        </mxCell>
        <mxCell id="s11C3Zhsg1OrHCNwJiAl-31" value="" style="line;strokeWidth=1;fillColor=none;align=left;verticalAlign=middle;spacingTop=-1;spacingLeft=3;spacingRight=3;rotatable=0;labelPosition=right;points=[];portConstraint=eastwest;" vertex="1" parent="s11C3Zhsg1OrHCNwJiAl-29">
          <mxGeometry y="130" width="160" height="8" as="geometry" />
        </mxCell>
        <mxCell id="s11C3Zhsg1OrHCNwJiAl-35" value="Prenda" style="swimlane;fontStyle=1;align=center;verticalAlign=top;childLayout=stackLayout;horizontal=1;startSize=26;horizontalStack=0;resizeParent=1;resizeParentMax=0;resizeLast=0;collapsible=1;marginBottom=0;" vertex="1" parent="1">
          <mxGeometry x="290" y="330" width="210" height="138" as="geometry" />
        </mxCell>
        <mxCell id="s11C3Zhsg1OrHCNwJiAl-42" value="+ Codigo: int" style="text;strokeColor=none;fillColor=none;align=left;verticalAlign=top;spacingLeft=4;spacingRight=4;overflow=hidden;rotatable=0;points=[[0,0.5],[1,0.5]];portConstraint=eastwest;" vertex="1" parent="s11C3Zhsg1OrHCNwJiAl-35">
          <mxGeometry y="26" width="210" height="26" as="geometry" />
        </mxCell>
        <mxCell id="s11C3Zhsg1OrHCNwJiAl-39" value="+ Calidad: enum (Standar, Premium)" style="text;strokeColor=none;fillColor=none;align=left;verticalAlign=top;spacingLeft=4;spacingRight=4;overflow=hidden;rotatable=0;points=[[0,0.5],[1,0.5]];portConstraint=eastwest;" vertex="1" parent="s11C3Zhsg1OrHCNwJiAl-35">
          <mxGeometry y="52" width="210" height="26" as="geometry" />
        </mxCell>
        <mxCell id="s11C3Zhsg1OrHCNwJiAl-40" value="+ Precio: double" style="text;strokeColor=none;fillColor=none;align=left;verticalAlign=top;spacingLeft=4;spacingRight=4;overflow=hidden;rotatable=0;points=[[0,0.5],[1,0.5]];portConstraint=eastwest;" vertex="1" parent="s11C3Zhsg1OrHCNwJiAl-35">
          <mxGeometry y="78" width="210" height="26" as="geometry" />
        </mxCell>
        <mxCell id="s11C3Zhsg1OrHCNwJiAl-41" value="+ Cantidad: int" style="text;strokeColor=none;fillColor=none;align=left;verticalAlign=top;spacingLeft=4;spacingRight=4;overflow=hidden;rotatable=0;points=[[0,0.5],[1,0.5]];portConstraint=eastwest;" vertex="1" parent="s11C3Zhsg1OrHCNwJiAl-35">
          <mxGeometry y="104" width="210" height="26" as="geometry" />
        </mxCell>
        <mxCell id="s11C3Zhsg1OrHCNwJiAl-37" value="" style="line;strokeWidth=1;fillColor=none;align=left;verticalAlign=middle;spacingTop=-1;spacingLeft=3;spacingRight=3;rotatable=0;labelPosition=right;points=[];portConstraint=eastwest;" vertex="1" parent="s11C3Zhsg1OrHCNwJiAl-35">
          <mxGeometry y="130" width="210" height="8" as="geometry" />
        </mxCell>
        <mxCell id="s11C3Zhsg1OrHCNwJiAl-48" style="edgeStyle=orthogonalEdgeStyle;rounded=0;orthogonalLoop=1;jettySize=auto;html=1;exitX=0.5;exitY=0;exitDx=0;exitDy=0;entryX=0.5;entryY=0;entryDx=0;entryDy=0;startArrow=none;startFill=0;endArrow=block;endFill=0;" edge="1" parent="1" source="s11C3Zhsg1OrHCNwJiAl-44" target="s11C3Zhsg1OrHCNwJiAl-35">
          <mxGeometry relative="1" as="geometry" />
        </mxCell>
        <mxCell id="s11C3Zhsg1OrHCNwJiAl-44" value="Pantalon" style="swimlane;fontStyle=1;align=center;verticalAlign=top;childLayout=stackLayout;horizontal=1;startSize=26;horizontalStack=0;resizeParent=1;resizeParentMax=0;resizeLast=0;collapsible=1;marginBottom=0;" vertex="1" parent="1">
          <mxGeometry x="200" y="550" width="200" height="60" as="geometry" />
        </mxCell>
        <mxCell id="s11C3Zhsg1OrHCNwJiAl-45" value="+ Tipo: Enum(Comun, Chupin)" style="text;strokeColor=none;fillColor=none;align=left;verticalAlign=top;spacingLeft=4;spacingRight=4;overflow=hidden;rotatable=0;points=[[0,0.5],[1,0.5]];portConstraint=eastwest;" vertex="1" parent="s11C3Zhsg1OrHCNwJiAl-44">
          <mxGeometry y="26" width="200" height="26" as="geometry" />
        </mxCell>
        <mxCell id="s11C3Zhsg1OrHCNwJiAl-46" value="" style="line;strokeWidth=1;fillColor=none;align=left;verticalAlign=middle;spacingTop=-1;spacingLeft=3;spacingRight=3;rotatable=0;labelPosition=right;points=[];portConstraint=eastwest;" vertex="1" parent="s11C3Zhsg1OrHCNwJiAl-44">
          <mxGeometry y="52" width="200" height="8" as="geometry" />
        </mxCell>
        <mxCell id="s11C3Zhsg1OrHCNwJiAl-55" style="edgeStyle=orthogonalEdgeStyle;rounded=0;orthogonalLoop=1;jettySize=auto;html=1;exitX=0.5;exitY=0;exitDx=0;exitDy=0;entryX=0.75;entryY=0;entryDx=0;entryDy=0;startArrow=none;startFill=0;endArrow=block;endFill=0;" edge="1" parent="1" source="s11C3Zhsg1OrHCNwJiAl-50" target="s11C3Zhsg1OrHCNwJiAl-35">
          <mxGeometry relative="1" as="geometry" />
        </mxCell>
        <mxCell id="s11C3Zhsg1OrHCNwJiAl-50" value="Camisa" style="swimlane;fontStyle=1;align=center;verticalAlign=top;childLayout=stackLayout;horizontal=1;startSize=26;horizontalStack=0;resizeParent=1;resizeParentMax=0;resizeLast=0;collapsible=1;marginBottom=0;" vertex="1" parent="1">
          <mxGeometry x="494" y="550" width="186" height="86" as="geometry" />
        </mxCell>
        <mxCell id="s11C3Zhsg1OrHCNwJiAl-51" value="+ Manga: Enum(Corta, Larga)" style="text;strokeColor=none;fillColor=none;align=left;verticalAlign=top;spacingLeft=4;spacingRight=4;overflow=hidden;rotatable=0;points=[[0,0.5],[1,0.5]];portConstraint=eastwest;" vertex="1" parent="s11C3Zhsg1OrHCNwJiAl-50">
          <mxGeometry y="26" width="186" height="26" as="geometry" />
        </mxCell>
        <mxCell id="s11C3Zhsg1OrHCNwJiAl-54" value="+ CuelloMao: bool" style="text;strokeColor=none;fillColor=none;align=left;verticalAlign=top;spacingLeft=4;spacingRight=4;overflow=hidden;rotatable=0;points=[[0,0.5],[1,0.5]];portConstraint=eastwest;" vertex="1" parent="s11C3Zhsg1OrHCNwJiAl-50">
          <mxGeometry y="52" width="186" height="26" as="geometry" />
        </mxCell>
        <mxCell id="s11C3Zhsg1OrHCNwJiAl-52" value="" style="line;strokeWidth=1;fillColor=none;align=left;verticalAlign=middle;spacingTop=-1;spacingLeft=3;spacingRight=3;rotatable=0;labelPosition=right;points=[];portConstraint=eastwest;" vertex="1" parent="s11C3Zhsg1OrHCNwJiAl-50">
          <mxGeometry y="78" width="186" height="8" as="geometry" />
        </mxCell>
      </root>
    </mxGraphModel>
  </diagram>
</mxfile>
